<mxfile host="app.diagrams.net" modified="2023-12-25T05:30:11.443Z" agent="Mozilla/5.0 (Windows NT 10.0; Win64; x64) AppleWebKit/537.36 (KHTML, like Gecko) Chrome/120.0.0.0 Safari/537.36" etag="dmLxULHs6f9SzTRX_sCm" version="22.1.11" type="github">
  <diagram name="第 1 页" id="IsvwM6-YKE_GoTppt3fw">
    <mxGraphModel dx="1323" dy="1869" grid="1" gridSize="10" guides="1" tooltips="1" connect="1" arrows="1" fold="1" page="1" pageScale="1" pageWidth="827" pageHeight="1169" math="0" shadow="0">
      <root>
        <mxCell id="0" />
        <mxCell id="1" parent="0" />
        <mxCell id="HFhz5FGfLWhY5XjUTeZ5-1" value="&amp;lt;div&amp;nbsp;id=&quot;myNavbar&quot;&amp;gt;" style="rounded=0;whiteSpace=wrap;html=1;fontSize=33;" vertex="1" parent="1">
          <mxGeometry x="139" y="-1169" width="549" height="60" as="geometry" />
        </mxCell>
        <mxCell id="HFhz5FGfLWhY5XjUTeZ5-2" value="&amp;lt;div class=&quot;header&quot;&amp;gt;" style="rounded=0;whiteSpace=wrap;html=1;fontSize=33;" vertex="1" parent="1">
          <mxGeometry x="139" y="-1109" width="549" height="109" as="geometry" />
        </mxCell>
        <mxCell id="HFhz5FGfLWhY5XjUTeZ5-6" value="&amp;lt;div class=&quot;container&quot;&amp;gt;" style="rounded=0;whiteSpace=wrap;html=1;fontSize=33;" vertex="1" parent="1">
          <mxGeometry x="139" y="-1000" width="548" height="150" as="geometry" />
        </mxCell>
        <mxCell id="HFhz5FGfLWhY5XjUTeZ5-8" value="&amp;lt;div class=&quot;container&quot;&amp;gt;" style="rounded=0;whiteSpace=wrap;html=1;fontSize=33;" vertex="1" parent="1">
          <mxGeometry x="140" y="-850" width="548" height="150" as="geometry" />
        </mxCell>
        <mxCell id="HFhz5FGfLWhY5XjUTeZ5-9" value="&amp;lt;div class=&quot;container&quot;&amp;gt;" style="rounded=0;whiteSpace=wrap;html=1;fontSize=33;" vertex="1" parent="1">
          <mxGeometry x="139" y="-700" width="548" height="150" as="geometry" />
        </mxCell>
        <mxCell id="HFhz5FGfLWhY5XjUTeZ5-10" value="&amp;lt;div class=&quot;back-top hide&quot;&amp;gt;" style="rounded=0;whiteSpace=wrap;html=1;" vertex="1" parent="1">
          <mxGeometry x="500" y="-590" width="170" height="30" as="geometry" />
        </mxCell>
      </root>
    </mxGraphModel>
  </diagram>
</mxfile>
